<?xml version="1.0" standalone="no"?><!DOCTYPE svg PUBLIC "-//W3C//DTD SVG 1.1//EN" "http://www.w3.org/Graphics/SVG/1.1/DTD/svg11.dtd"><svg t="1562000001065" class="icon" viewBox="0 0 1024 1024" version="1.1" xmlns="http://www.w3.org/2000/svg" p-id="2109" xmlns:xlink="http://www.w3.org/1999/xlink" width="48" height="48"><defs><style type="text/css"></style></defs><path d="M142.2 375.8C110 375.8 84 402 84 434.2v350.2c0 32.2 26.2 58.4 58.4 58.4h739.4c32.2 0 58.4-26.2 58.4-58.4V434.2c0-32.2-26.2-58.4-58.4-58.4H142.2z" fill="#59C3F0" p-id="2110"></path><path d="M881.8 375.8h-39c32.2 0 58.4 26.2 58.4 58.4v350.2c0 32.2-26.2 58.4-58.4 58.4h39c32.2 0 58.4-26.2 58.4-58.4V434.2c-0.2-32.2-26.2-58.4-58.4-58.4z" fill="#21A0D6" p-id="2111"></path><path d="M142.2 842.8h39c-32.2 0-58.4-26.2-58.4-58.4V434.2c0-32.2 26.2-58.4 58.4-58.4H142.2C110 375.8 84 402 84 434.2v350.2c0 32.2 26 58.4 58.2 58.4z" fill="#96DCFA" p-id="2112"></path><path d="M881.8 852.6H142.2C104.6 852.6 74 822 74 784.4V434.2c0-37.6 30.6-68.2 68.2-68.2h739.4c37.6 0 68.2 30.6 68.2 68.2v350.2c0 37.6-30.6 68.2-68 68.2zM142.2 385.6c-26.8 0-48.6 21.8-48.6 48.6v350.2c0 26.8 21.8 48.6 48.6 48.6h739.4c26.8 0 48.6-21.8 48.6-48.6V434.2c0-26.8-21.8-48.6-48.6-48.6H142.2z" fill="#402943" p-id="2113"></path><path d="M181.2 803.8c-32.2 0-58.4-26.2-58.4-58.4V414.6c0-32.2 26.2-58.4 58.4-58.4h272.4c32.2 0 58.4 26.2 58.4 58.4v389.2H181.2z" fill="#E6E7E8" p-id="2114"></path><path d="M181.2 356.4h58.4c-32.2 0-58.4 26.2-58.4 58.4v330.8c0 32.2 26.2 58.4 58.4 58.4H181.2c-32.2 0-58.4-26.2-58.4-58.4V414.8c0-32.4 26.2-58.4 58.4-58.4z" fill="#BCBEC0" p-id="2115"></path><path d="M181.2 813.6c-37.6 0-68.2-30.6-68.2-68.2V414.8c0-37.6 30.6-68.2 68.2-68.2h272.4c37.6 0 68.2 30.6 68.2 68.2V804c0 5.4-4.4 9.8-9.8 9.8l-330.8-0.2z m0-447.6c-26.8 0-48.6 21.8-48.6 48.6v330.8c0 26.8 21.8 48.6 48.6 48.6h321V414.6c0-26.8-21.8-48.6-48.6-48.6H181.2z" fill="#402943" p-id="2116"></path><path d="M842.8 803.8c32.2 0 58.4-26.2 58.4-58.4V414.8c0-32.2-26.2-58.4-58.4-58.4H570.4c-32.2 0-58.4 26.2-58.4 58.4V804l330.8-0.2z" fill="#E6E7E8" p-id="2117"></path><path d="M842.8 356.4h-58.4c32.2 0 58.4 26.2 58.4 58.4v330.8c0 32.2-26.2 58.4-58.4 58.4h58.4c32.2 0 58.4-26.2 58.4-58.4V414.8c0-32.4-26.2-58.4-58.4-58.4z" fill="#BCBEC0" p-id="2118"></path><path d="M842.8 813.6H512c-5.4 0-9.8-4.4-9.8-9.8V414.6c0-37.6 30.6-68.2 68.2-68.2h272.4c37.6 0 68.2 30.6 68.2 68.2v330.8c-0.2 37.6-30.6 68.2-68.2 68.2z m-321-19.4h321c26.8 0 48.6-21.8 48.6-48.6V414.8c0-26.8-21.8-48.6-48.6-48.6H570.4c-26.8 0-48.6 21.8-48.6 48.6v379.4z" fill="#402943" p-id="2119"></path><path d="M181.2 745.6c-32.2 0-58.4-26.2-58.4-58.4V356.4c0-32.2 26.2-58.4 58.4-58.4h272.4c32.2 0 58.4 26.2 58.4 58.4V804c0-32.2-26.2-58.4-58.4-58.4H181.2z" fill="#FFFFFF" p-id="2120"></path><path d="M181.2 298h58.4c-32.2 0-58.4 26.2-58.4 58.4v330.8c0 32.2 26.2 58.4 58.4 58.4H181.2c-32.2 0-58.4-26.2-58.4-58.4V356.4c0-32.4 26.2-58.4 58.4-58.4z" fill="#E6E7E8" p-id="2121"></path><path d="M512 813.6c-5.4 0-9.8-4.4-9.8-9.8 0-26.8-21.8-48.6-48.6-48.6H181.2c-37.6 0-68.2-30.6-68.2-68.2V356.4c0-37.6 30.6-68.2 68.2-68.2h272.4c37.6 0 68.2 30.6 68.2 68.2V804c0 5.2-4.4 9.6-9.8 9.6z m-58.4-77.8c19 0 36.2 7.8 48.6 20.4v-400c0-26.8-21.8-48.6-48.6-48.6H181.2c-26.8 0-48.6 21.8-48.6 48.6v330.8c0 26.8 21.8 48.6 48.6 48.6l272.4 0.2z" fill="#402943" p-id="2122"></path><path d="M842.8 745.6c32.2 0 58.4-26.2 58.4-58.4V356.4c0-32.2-26.2-58.4-58.4-58.4H570.4c-32.2 0-58.4 26.2-58.4 58.4V804c0-32.2 26.2-58.4 58.4-58.4h272.4z" fill="#FFFFFF" p-id="2123"></path><path d="M842.8 298h-58.4c32.2 0 58.4 26.2 58.4 58.4v330.8c0 32.2-26.2 58.4-58.4 58.4h58.4c32.2 0 58.4-26.2 58.4-58.4V356.4c0-32.4-26.2-58.4-58.4-58.4z" fill="#E6E7E8" p-id="2124"></path><path d="M512 813.6c-5.4 0-9.8-4.4-9.8-9.8V356.2c0-37.6 30.6-68.2 68.2-68.2h272.4c37.6 0 68.2 30.6 68.2 68.2v330.8c0 37.6-30.6 68.2-68.2 68.2H570.4c-26.8 0-48.6 21.8-48.6 48.6 0 5.4-4.4 9.8-9.8 9.8z m58.4-506c-26.8 0-48.6 21.8-48.6 48.6v400c12.4-12.6 29.6-20.4 48.6-20.4h272.4c26.8 0 48.6-21.8 48.6-48.6V356.4c0-26.8-21.8-48.6-48.6-48.6H570.4z" fill="#402943" p-id="2125"></path><path d="M434.2 492.6c0-43 34.8-77.8 77.8-77.8s77.8 34.8 77.8 77.8h233.6c0-172-139.4-311.4-311.4-311.4s-311.4 139.4-311.4 311.4h233.6z" fill="#F05458" p-id="2126"></path><path d="M512 181.2c-6.6 0-13 0.2-19.4 0.6 162.8 10 291.8 145.4 291.8 310.8h39c0-172-139.4-311.4-311.4-311.4z" fill="#D9383C" p-id="2127"></path><path d="M512 181.2c6.6 0 13 0.2 19.4 0.6-162.8 10-291.8 145.4-291.8 310.8h-39c0-172 139.4-311.4 311.4-311.4z" fill="#F0787B" p-id="2128"></path><path d="M823.4 502.2H589.8c-5.4 0-9.8-4.4-9.8-9.8 0-37.6-30.6-68-68.2-68s-68.2 30.6-68.2 68c0 5.4-4.4 9.8-9.8 9.8H200.6c-2.6 0-5-1-6.8-2.8-1.8-1.8-2.8-4.2-2.8-6.8 0-177 144-321 321-321s321 144 321 321c0 5.4-4.2 9.6-9.6 9.6z m-224.4-19.4h214.4C808.2 321 675 191 512 191s-296.2 130-301.4 291.8h214.4c4.8-43.8 42-77.8 87-77.8s82.2 34 87 77.8z" fill="#402943" p-id="2129"></path><path d="M434.2 492.6c0-43 34.8-77.8 77.8-77.8s77.8 34.8 77.8 77.8h155.6c0-129-104.6-233.4-233.4-233.4s-233.4 104.6-233.4 233.4h155.6z" fill="#FCD64B" p-id="2130"></path><path d="M512 259c-6.6 0-13 0.2-19.4 0.8 119.8 9.8 214 110.2 214 232.6h39c-0.2-128.8-104.6-233.4-233.6-233.4z" fill="#F5AB33" p-id="2131"></path><path d="M512 259c6.6 0 13 0.2 19.4 0.8-119.8 9.8-214 110.2-214 232.6h-39c0-128.8 104.6-233.4 233.6-233.4z" fill="#FFECA6" p-id="2132"></path><path d="M745.6 502.2H590c-5.4 0-9.8-4.4-9.8-9.8 0-37.6-30.6-68-68.2-68s-68.2 30.6-68.2 68c0 5.4-4.4 9.8-9.8 9.8h-155.6c-2.6 0-5-1-6.8-2.8-1.8-1.8-2.8-4.2-2.8-6.8 0-134.2 109.2-243.2 243.2-243.2 134.2 0 243.2 109.2 243.2 243.2 0 5.4-4.4 9.6-9.6 9.6z m-146.6-19.4h136.6c-5.2-118.8-103.4-214-223.6-214-120.2 0-218.4 95.2-223.6 214h136.6c4.8-43.8 42-77.8 87-77.8s82.2 34 87 77.8z" fill="#402943" p-id="2133"></path><path d="M434.2 492.6c0-43 34.8-77.8 77.8-77.8s77.8 34.8 77.8 77.8h77.8c0-86-69.6-155.6-155.6-155.6s-155.6 69.6-155.6 155.6h77.8z" fill="#4AB5AC" p-id="2134"></path><path d="M512 336.8c-6.6 0-13 0.4-19.4 1.2 76.8 9.6 136.2 75 136.2 154.4h39c-0.2-85.8-69.8-155.6-155.8-155.6z" fill="#3F9991" p-id="2135"></path><path d="M512 336.8c6.6 0 13 0.4 19.4 1.2-76.8 9.6-136.2 75-136.2 154.4h-39c0.2-85.8 69.8-155.6 155.8-155.6z" fill="#5BDED3" p-id="2136"></path><path d="M667.6 502.2h-77.8c-5.4 0-9.8-4.4-9.8-9.8 0-37.6-30.6-68-68.2-68s-68.2 30.6-68.2 68c0 5.4-4.4 9.8-9.8 9.8H356c-2.6 0-5-1-6.8-2.8-1.8-1.8-2.8-4.2-2.8-6.8 0-91.2 74.2-165.4 165.4-165.4s165.4 74.2 165.4 165.4c0.2 5.4-4.2 9.6-9.6 9.6z m-68.6-19.4h58.6c-5-76-68.4-136.2-145.6-136.2-77.2 0-140.6 60.2-145.6 136.2h58.6c4.8-43.8 42-77.8 87-77.8s82.2 34 87 77.8z" fill="#402943" p-id="2137"></path><path d="M453.6 502.2H181.2c-5.4 0-9.8-4.4-9.8-9.8s4.4-9.8 9.8-9.8h272.4c5.4 0 9.8 4.4 9.8 9.8 0 5.6-4.4 9.8-9.8 9.8zM453.6 560.6H181.2c-5.4 0-9.8-4.4-9.8-9.8s4.4-9.8 9.8-9.8h272.4c5.4 0 9.8 4.4 9.8 9.8s-4.4 9.8-9.8 9.8zM453.6 619H181.2c-5.4 0-9.8-4.4-9.8-9.8s4.4-9.8 9.8-9.8h272.4c5.4 0 9.8 4.4 9.8 9.8s-4.4 9.8-9.8 9.8zM453.6 677.4H181.2c-5.4 0-9.8-4.4-9.8-9.8s4.4-9.8 9.8-9.8h272.4c5.4 0 9.8 4.4 9.8 9.8s-4.4 9.8-9.8 9.8z" fill="#402943" p-id="2138"></path><path d="M842.8 502.2H570.4c-5.4 0-9.8-4.4-9.8-9.8s4.4-9.8 9.8-9.8h272.4c5.4 0 9.8 4.4 9.8 9.8 0 5.6-4.4 9.8-9.8 9.8zM842.8 560.6H570.4c-5.4 0-9.8-4.4-9.8-9.8s4.4-9.8 9.8-9.8h272.4c5.4 0 9.8 4.4 9.8 9.8s-4.4 9.8-9.8 9.8zM842.8 619H570.4c-5.4 0-9.8-4.4-9.8-9.8s4.4-9.8 9.8-9.8h272.4c5.4 0 9.8 4.4 9.8 9.8s-4.4 9.8-9.8 9.8zM842.8 677.4H570.4c-5.4 0-9.8-4.4-9.8-9.8s4.4-9.8 9.8-9.8h272.4c5.4 0 9.8 4.4 9.8 9.8s-4.4 9.8-9.8 9.8z" fill="#402943" p-id="2139"></path></svg>